<svg width="50.000000" height="50.000000" viewBox="0 0 50 50" fill="none" xmlns="http://www.w3.org/2000/svg">

<!--	menu-->
	<g id="rect-0">
		<rect y="0.42749" width="171.127" height="2.93865" fill="#7572D5"/>
	</g>

	<!--	hero-->

	<g id="rect-1">
		<rect x="2.5" y="2.5" width="365" height="475" stroke="#7572D5" stroke-width="5"/>
	</g>

	<g id="rect-2">
		<rect width="426" height="20" fill="#7572D5"/>
	</g>



	<!--my skills-->

	<g id="vector">
		<path d="M0 1H55" stroke="#7572D5"/>
	</g>

	<g id="rect-3">
		<rect x="57" width="80" height="80" transform="rotate(45 57 0)" fill="white" fill-opacity="0.1"/>
	</g>

	<g id="code">
			<path d="M18.31 42.06L27.26 6.68L31.43 7.87L22.48 43.31L18.31 42.06Z" fill="#7572D5" fill-opacity="1.000000" fill-rule="evenodd"/>
			<path d="M13.5 12.68L16.56 15.92L7.99 25L16.56 34.07L13.5 37.31L1.87 25L13.5 12.68Z" fill="#7572D5" fill-opacity="1.000000" fill-rule="evenodd"/>
			<path d="M36.49 12.68L33.43 15.92L42 25L33.43 34.07L36.49 37.31L48.12 25L36.49 12.68Z" fill="#7572D5" fill-opacity="1.000000" fill-rule="evenodd"/>
	</g>

	<g id="css">
		<path d="M33.0508 8.84371L7.94605 8.83771L8.3515 13.7547L27.6381 13.7577L27.1519 18.8502H14.5035L14.9608 23.6742H26.7358L26.0392 30.2806L20.4969 31.7886L14.8663 30.2701L14.508 26.3134H9.53586L10.0877 33.5411L20.4969 36.7341L30.7309 33.8652L33.0493 8.84521L33.0508 8.84371ZM0.498444 0.568726H40.4984L36.86 40.9999L20.4542 45.5687L4.13993 40.9968L0.498444 0.568726Z" fill="#7572D5"/>
	</g>

	<g id="react">
		<path id="Vector" d="M44.81 20C44.81 17.08 41.68 14.37 36.47 12.5L35.54 12.18L35.54 11.77C36.68 6.04 35.85 1.77 33.25 0.2C30.64 -1.36 26.79 0.1 22.62 3.75L22 4.37L21.79 4.16L21.58 4.16C17.31 0.2 13.14 -1.15 10.54 0.31C7.93 1.77 7.2 5.83 8.25 11.14C8.35 11.48 8.42 11.83 8.45 12.18L7.31 12.6C2.2 14.37 -0.82 17.08 -0.82 20C-0.82 22.91 2.52 25.83 7.72 27.7L8.45 27.91C8.32 28.28 8.25 28.67 8.25 29.06C7.2 34.27 8.14 38.22 10.54 39.68C12.93 41.14 17.31 39.79 21.47 36.14L22.1 35.62L22.93 36.45C25.85 38.95 28.77 40.31 31.06 40.31C31.87 40.33 32.66 40.11 33.35 39.68C35.95 38.22 36.89 33.95 35.75 28.54L35.75 28.33C35.7 28.16 35.67 27.98 35.64 27.81L35.95 27.81C41.47 25.83 44.81 23.02 44.81 20ZM41.79 20C41.79 21.25 39.5 23.43 35.02 24.89L34.81 24.89C34.26 23.22 33.6 21.58 32.83 20C33.56 18.33 34.18 16.66 34.7 15.1L35.54 15.31C39.7 16.77 41.79 18.75 41.79 20ZM24.91 34.16L24.08 33.54C25.27 32.22 26.38 30.82 27.41 29.37L32.72 28.54C32.83 28.75 32.83 28.95 32.93 29.06C33.3 30.94 33.37 32.88 33.14 34.79C32.99 35.7 32.56 36.54 31.89 37.18C30.85 37.81 28.04 36.97 24.91 34.16ZM23.56 29.58L22.1 31.45L20.43 29.58L23.56 29.58ZM9.29 15C9.81 16.71 10.47 18.38 11.27 20C10.47 21.64 9.81 23.35 9.29 25.1L8.66 24.89C6.84 24.32 5.14 23.4 3.66 22.18C3.28 21.94 2.95 21.62 2.7 21.24C2.45 20.87 2.28 20.44 2.2 20C2.2 18.75 4.29 16.77 8.25 15.41L9.29 15ZM20.43 10.41L22 8.64L23.56 10.41L20.43 10.41ZM31.89 2.81C33.04 3.43 33.66 6.56 32.72 11.14C32.73 11.2 32.72 11.25 32.7 11.31C32.69 11.36 32.66 11.41 32.62 11.45L27.41 10.62C26.38 9.17 25.27 7.77 24.08 6.45L24.7 5.93C28.04 3.02 30.75 2.18 31.89 2.81ZM14.5 13.85L13.66 15.2L12.93 16.56C12.62 15.83 12.41 15.1 12.1 14.27L14.5 13.85ZM12.1 25.72C12.41 25 12.62 24.27 12.93 23.43L13.66 24.79L14.5 26.14L12.1 25.72ZM29.5 20C28.96 21.14 28.37 22.25 27.72 23.33C27.1 24.47 26.37 25.52 25.75 26.56L18.25 26.56C17.52 25.41 16.79 24.37 16.27 23.33C15.61 22.25 15.02 21.14 14.5 20C15 18.84 15.59 17.73 16.27 16.66C16.86 15.58 17.53 14.54 18.25 13.54C20.74 13.33 23.25 13.33 25.75 13.54C26.47 14.58 27.1 15.62 27.72 16.66C28.4 17.73 28.99 18.84 29.5 20ZM30.33 15.2L29.5 13.85L31.89 14.37C31.66 15.12 31.38 15.85 31.06 16.56L30.33 15.2ZM29.5 26.14L30.33 24.79L31.06 23.33L32 25.72L29.5 26.14ZM19.81 6.35L19.91 6.35L16.58 10.52L11.37 11.35C11.27 11.04 11.27 10.83 11.16 10.52C10.33 6.25 10.95 3.33 12 2.81C12.27 2.63 12.61 2.55 12.93 2.6C14.39 2.6 16.89 3.64 19.7 6.14L19.81 6.35ZM11.16 29.58C11.18 29.26 11.25 28.94 11.37 28.64L16.68 29.37C17.68 30.84 18.8 32.24 20.02 33.54L19.81 33.75L19.6 33.95C18.18 35.27 16.52 36.29 14.7 36.97C14.31 37.18 13.87 37.31 13.42 37.34C12.98 37.38 12.52 37.32 12.1 37.18C10.95 36.56 10.33 33.75 11.16 29.58Z" fill="#7572D5" fill-opacity="1.000000" fill-rule="nonzero"/>
	</g>

	<g id="ts">
		<path id="Vector" d="M0 20L0 40L40 40L40 0L0 0L0 20ZM32.23 18.4C33.25 18.66 34.02 19.11 34.73 19.84C35.1 20.24 35.65 20.95 35.69 21.13C35.7 21.18 33.96 22.34 32.91 23C32.87 23.02 32.72 22.86 32.55 22.61C32.03 21.86 31.49 21.53 30.67 21.48C29.46 21.39 28.68 22.03 28.68 23.09C28.67 23.35 28.73 23.61 28.85 23.84C29.12 24.39 29.62 24.72 31.17 25.39C34.03 26.63 35.26 27.44 36.02 28.59C36.87 29.88 37.06 31.94 36.48 33.47C35.85 35.13 34.28 36.26 32.06 36.64C31.37 36.76 29.75 36.74 29.01 36.61C27.41 36.32 25.88 35.53 24.94 34.48C24.57 34.08 23.86 33.02 23.9 32.94C23.92 32.91 24.08 32.81 24.27 32.71C24.45 32.61 25.12 32.22 25.75 31.85L26.9 31.18L27.15 31.54C27.48 32.05 28.22 32.76 28.66 32.99C29.94 33.66 31.69 33.57 32.55 32.8C32.73 32.65 32.86 32.46 32.95 32.26C33.05 32.05 33.09 31.82 33.08 31.6C33.08 31.13 33.02 30.93 32.78 30.58C32.47 30.14 31.83 29.76 30.03 28.98C27.96 28.09 27.08 27.54 26.26 26.66C25.75 26.08 25.38 25.4 25.16 24.66C25.01 24.1 24.97 22.68 25.09 22.11C25.52 20.12 27.02 18.73 29.2 18.31C29.9 18.18 31.54 18.23 32.23 18.4ZM22.84 20.07L22.85 21.71L17.65 21.71L17.65 36.5L13.96 36.5L13.96 21.71L8.76 21.71L8.76 20.1C8.76 19.21 8.78 18.47 8.8 18.45C8.82 18.43 11.99 18.41 15.83 18.42L22.82 18.44L22.84 20.07Z" fill="#7572D5" fill-opacity="1.000000" fill-rule="nonzero"/>
	</g>

	<g id="styled-comp">
			<path d="M37.25 6.25L36.98 7.64C36.57 10.3 36.72 11.06 37.86 12.04L38.97 12.95L37.82 18.03C37.14 21.05 36.3 23.59 35.77 24.43C35.31 25.15 34.77 26.21 34.66 26.77C34.47 27.45 33.82 28.14 32.83 28.74C31.95 29.24 30.23 30.56 29.02 31.62C28.04 32.49 27.37 33.03 27.01 33.26L25.82 34.19C25.44 34.8 25.22 35.29 25.14 35.66C25.05 36.05 25.1 36.3 25.22 36.49C25.34 36.66 25.55 36.79 25.83 36.87C26.16 36.95 26.5 36.97 26.85 36.95C27.62 36.9 28.38 36.76 29.12 36.55C29.38 36.48 29.57 36.42 29.75 36.36C30.01 36.03 30.63 35.42 31.72 34.35C34.62 31.51 35.73 29.96 34.58 30.38C34.16 30.53 34.35 30.15 35.08 29.39C36.61 27.91 37.48 25.68 39.31 18.67C40.76 13.14 40.76 13.06 41.83 13.06C42.33 13.06 43.75 13.15 43.75 13.15L43.75 6.25L40.49 6.25L37.25 6.25ZM24.42 18.08C23.36 18.07 21.1 19.66 14.33 25.16C14.03 25.85 14.01 26.32 14.14 26.63C14.23 26.84 14.39 26.99 14.61 27.1C14.82 27.2 15.1 27.27 15.41 27.29C16.03 27.35 16.76 27.25 17.35 27.14L17.74 27.05C17.88 26.87 18.06 26.72 18.26 26.62C18.68 26.39 20.43 24.81 22.19 23.1C25.28 19.99 26 18.59 24.74 18.14C24.64 18.1 24.53 18.08 24.42 18.08ZM32.33 20.23C31.4 20.26 29.74 21.33 26.88 23.59C25.44 24.75 24.54 25.37 24.05 25.5L22.16 26.98C21.45 28.27 21.35 29.07 21.53 29.51C21.58 29.62 21.65 29.72 21.73 29.8C21.82 29.88 21.92 29.95 22.03 29.99C22.31 30.1 22.6 30.15 22.9 30.15C23.6 30.14 24.31 30.04 24.99 29.85C25.34 29.75 25.69 29.64 26.03 29.52L26.14 29.47L26.33 29.37C26.69 28.91 27.52 28.04 28.56 27.04C31.84 23.9 33.51 21.66 33.17 20.83C33.02 20.42 32.75 20.22 32.33 20.23ZM23.59 24.1C23.33 24.13 22.73 24.59 21.65 25.52C20.1 26.89 18.4 27.68 17.81 27.33C17.67 27.36 17.54 27.39 17.4 27.41C16.8 27.53 16.06 27.63 15.39 27.58C15.07 27.56 14.77 27.48 14.48 27.35C14.21 27.23 13.99 27.01 13.87 26.74C13.74 26.42 13.74 26.02 13.89 25.51L11.55 27.42L6.25 31.77L6.25 38.84L23.62 25.25C23.62 25.1 23.64 24.95 23.68 24.81C23.81 24.33 23.8 24.08 23.59 24.1L23.59 24.1ZM31.07 26.39C30.81 26.39 30.37 26.76 29.66 27.5C28.71 28.51 27.21 29.49 26.41 29.69L26.29 29.76C26.16 29.81 26.02 29.86 25.89 29.91C25.67 29.98 25.39 30.06 25.07 30.15C24.42 30.33 23.61 30.49 22.89 30.47C22.55 30.47 22.22 30.4 21.9 30.27C21.6 30.15 21.37 29.92 21.24 29.63C21.03 29.13 21.11 28.44 21.57 27.44L6.25 39.43L6.25 43.75L12.98 43.75L27.26 32.61C27.63 32.2 28.19 31.64 28.94 30.94C30.96 29.08 31.42 28.44 31.42 27.49C31.42 26.76 31.33 26.38 31.07 26.38L31.07 26.39ZM34.47 33.37L33.25 34.58C32.56 35.22 31.34 36.02 30.5 36.36L30.34 36.43L30.33 36.45L30.29 36.48C30.26 36.51 30.24 36.51 30.22 36.52C29.89 36.65 29.55 36.76 29.2 36.85C28.44 37.08 27.65 37.21 26.86 37.27C26.48 37.29 26.11 37.26 25.74 37.17C25.43 37.1 25.15 36.92 24.96 36.65C24.78 36.39 24.73 36.03 24.83 35.6C24.91 35.29 25.02 34.99 25.17 34.7L13.65 43.75L28.98 43.75L30.81 41.66C33.32 38.75 34.47 36.66 34.47 34.88L34.47 33.37Z" fill="#7572D5" fill-opacity="1.000000" fill-rule="nonzero"/>
	</g>

	<g id="figma">
			<path d="M17.7 4.16C14.25 4.16 11.45 6.96 11.45 10.41C11.45 13.86 14.25 16.66 17.7 16.66L32.29 16.66C35.74 16.66 38.54 13.86 38.54 10.41C38.54 6.96 35.74 4.16 32.29 4.16L17.7 4.16Z" fill="#7572D5" fill-opacity="1.000000" fill-rule="nonzero"/>
			<path d="M32.29 18.75C28.83 18.75 26.04 21.54 26.04 25C26.04 28.45 28.83 31.25 32.29 31.25C35.74 31.25 38.54 28.45 38.54 25C38.54 21.54 35.74 18.75 32.29 18.75Z" fill="#7572D5" fill-opacity="1.000000" fill-rule="nonzero"/>
			<path d="M11.45 25C11.45 21.54 14.25 18.75 17.7 18.75L23.95 18.75L23.95 31.25L17.7 31.25C14.25 31.25 11.45 28.45 11.45 25Z" fill="#7572D5" fill-opacity="1.000000" fill-rule="nonzero"/>
			<path d="M17.7 33.33C14.25 33.33 11.45 36.13 11.45 39.58C11.45 43.03 14.25 45.83 17.7 45.83C21.16 45.83 23.95 43.03 23.95 39.58L23.95 33.33L17.7 33.33Z" fill="#7572D5" fill-opacity="1.000000" fill-rule="nonzero"/>
	</g>

<!--	my works-->
	<g id="rect-4">
		<rect width="44" height="10" fill="#7572D5"/>
	</g>




	<!--	testimony-->
	<g id="bullet">
		<rect width="7" height="7" rx="3.5" fill="white" fill-opacity="0.5"/>
	</g>

	<g id="bullet-line">
		<rect width="20" height="7" rx="3.5" fill="#7572D5"/>
	</g>


	<g id="quote">
			<path d="M13.54 20.83C13.07 20.83 12.63 20.9 12.18 20.96C12.33 20.48 12.47 19.99 12.71 19.55C12.95 18.91 13.32 18.35 13.69 17.79C14 17.18 14.54 16.77 14.94 16.25C15.36 15.75 15.93 15.41 16.38 14.99C16.83 14.56 17.41 14.34 17.87 14.03C18.35 13.75 18.77 13.45 19.22 13.3L20.35 12.84L21.33 12.43L20.32 8.39L19.08 8.69C18.68 8.79 18.2 8.91 17.65 9.05C17.08 9.15 16.48 9.44 15.81 9.7C15.15 9.99 14.38 10.19 13.67 10.67C12.95 11.12 12.12 11.5 11.39 12.11C10.69 12.74 9.83 13.28 9.21 14.08C8.52 14.82 7.84 15.61 7.31 16.5C6.7 17.35 6.29 18.28 5.85 19.21C5.45 20.13 5.13 21.07 4.87 21.99C4.38 23.83 4.16 25.57 4.07 27.07C4 28.56 4.05 29.81 4.13 30.71C4.16 31.13 4.22 31.54 4.26 31.83L4.32 32.18L4.37 32.17C4.74 33.9 5.59 35.49 6.83 36.75C8.07 38.02 9.64 38.91 11.36 39.32C13.08 39.73 14.88 39.65 16.56 39.08C18.23 38.51 19.71 37.47 20.83 36.1C21.94 34.72 22.64 33.06 22.85 31.3C23.06 29.54 22.76 27.76 22 26.16C21.23 24.57 20.04 23.22 18.54 22.27C17.04 21.33 15.31 20.83 13.54 20.83ZM36.45 20.83C35.99 20.83 35.54 20.9 35.1 20.96C35.24 20.48 35.39 19.99 35.63 19.55C35.87 18.91 36.24 18.35 36.61 17.79C36.91 17.18 37.46 16.77 37.86 16.25C38.28 15.75 38.85 15.41 39.3 14.99C39.74 14.56 40.32 14.34 40.79 14.03C41.27 13.75 41.69 13.45 42.14 13.3L43.26 12.84L44.25 12.43L43.24 8.39L42 8.69C41.6 8.79 41.11 8.91 40.56 9.05C40 9.15 39.4 9.44 38.72 9.7C38.06 9.99 37.3 10.19 36.58 10.67C35.87 11.12 35.04 11.5 34.31 12.11C33.6 12.74 32.75 13.28 32.12 14.08C31.43 14.82 30.76 15.61 30.23 16.5C29.62 17.35 29.2 18.28 28.77 19.21C28.37 20.13 28.05 21.07 27.79 21.99C27.3 23.83 27.08 25.57 26.99 27.07C26.92 28.56 26.96 29.81 27.05 30.71C27.08 31.13 27.14 31.54 27.18 31.83L27.23 32.18L27.29 32.17C27.66 33.9 28.51 35.49 29.75 36.75C30.98 38.02 32.55 38.91 34.28 39.32C36 39.73 37.8 39.65 39.48 39.08C41.15 38.51 42.63 37.47 43.74 36.1C44.86 34.72 45.56 33.06 45.76 31.3C45.97 29.54 45.68 27.76 44.91 26.16C44.15 24.57 42.95 23.22 41.45 22.27C39.96 21.33 38.22 20.83 36.45 20.83Z" fill="#7572D5" fill-opacity="1.000000" fill-rule="nonzero"/>
	</g>

<!--	availability-->
	<g id="rect-5">
		<rect width="77" height="10" fill="#7572D5"/>
	</g>

	<!--	footer-->
	<g id="arrow">
		<path d="M6.80722 4.2806V15H9.19278V4.2806L14.3134 9.08118L16 7.5L8 0L0 7.5L1.6866 9.08118L6.80722 4.2806Z" fill="white"/>
	</g>

	<g id="inst">
		<path d="M13.6516 0.0999756H3.34844C1.55687 0.0999756 0.0999985 1.55628 0.0999985 3.34715V6.77799V13.6528C0.0999985 15.4437 1.55687 16.9 3.34844 16.9H13.6516C15.4431 16.9 16.9 15.4437 16.9 13.6528V6.77143V3.34058C16.8934 1.55628 15.4366 0.0999756 13.6516 0.0999756ZM14.5834 2.03516H14.9575V2.40251V4.88217L12.1159 4.88873L12.1094 2.04172L14.5834 2.03516ZM6.09812 6.77143C6.63625 6.03016 7.50906 5.53816 8.49343 5.53816C9.47781 5.53816 10.3506 6.0236 10.8887 6.77143C11.2431 7.25687 11.4466 7.85382 11.4466 8.4967C11.4466 10.1236 10.1209 11.4552 8.48687 11.4552C6.85281 11.4552 5.54031 10.1236 5.54031 8.4967C5.54031 7.85382 5.75031 7.25687 6.09812 6.77143ZM15.2594 13.6462C15.2594 14.5318 14.5375 15.2534 13.6516 15.2534H3.34844C2.4625 15.2534 1.74062 14.5318 1.74062 13.6462V6.77143H4.2475C4.03094 7.30279 3.90625 7.88662 3.90625 8.4967C3.90625 11.0288 5.96687 13.0887 8.5 13.0887C11.0331 13.0887 13.0937 11.0288 13.0937 8.4967C13.0937 7.88662 12.9691 7.30279 12.7525 6.77143H15.2594V13.6462Z" fill="#7572D5"/>
	</g>

	<g id="tel">
		<path d="M18.9057 4.76449L16.3705 16.7208C16.1791 17.5644 15.6804 17.7745 14.9717 17.3772L11.1085 14.5305L9.24472 16.3235C9.0383 16.5299 8.86608 16.7022 8.46824 16.7022L8.74607 12.7681L15.9054 6.29885C16.2169 6.02162 15.8376 5.86741 15.4218 6.14524L6.57084 11.7186L2.76043 10.5257C1.93174 10.2671 1.91674 9.69701 2.93325 9.29917L17.837 3.55716C18.5271 3.29854 19.1308 3.71018 18.9057 4.76449Z" fill="#1F1F20"/>
	</g>

	<g id="vk">
		<path d="M18.1696 13.9941C17.8038 13.5391 17.3881 13.1314 16.9861 12.737C16.8432 12.5968 16.6954 12.4518 16.5529 12.3076C16.1439 11.8932 16.129 11.7375 16.4529 11.2668C16.6769 10.9424 16.9145 10.6175 17.1442 10.3033C17.3526 10.0183 17.568 9.72351 17.7746 9.42777L17.817 9.36697C18.2117 8.80103 18.6199 8.21583 18.8372 7.50988C18.8936 7.32363 18.9528 7.04955 18.8174 6.82036C18.682 6.59137 18.4195 6.52151 18.2337 6.48888C18.1418 6.47273 18.0506 6.47053 17.9659 6.47053L15.3809 6.46861L15.3595 6.46842C14.9687 6.46842 14.7053 6.65927 14.5544 7.05194C14.4103 7.42713 14.252 7.82665 14.0714 8.20653C13.7119 8.96298 13.2554 9.83425 12.5948 10.5609L12.5669 10.5918C12.4889 10.6787 12.4005 10.777 12.3359 10.777C12.326 10.777 12.3152 10.7751 12.303 10.7711C12.1662 10.7159 12.0744 10.3726 12.0785 10.213C12.0786 10.2108 12.0786 10.2086 12.0786 10.2064L12.0768 7.1105C12.0768 7.09976 12.0761 7.08913 12.0747 7.07849C12.009 6.57522 11.8633 6.26195 11.3129 6.15026C11.2983 6.14724 11.2834 6.14575 11.2685 6.14575H8.5806C8.14268 6.14575 7.90138 6.33018 7.67456 6.60623C7.61334 6.68002 7.48589 6.83364 7.54906 7.01998C7.61315 7.20911 7.8212 7.24955 7.88894 7.26268C8.22522 7.32899 8.41477 7.54213 8.46846 7.91453C8.56219 8.56121 8.57371 9.25144 8.50471 10.0868C8.48547 10.3189 8.44742 10.4982 8.38471 10.6514C8.37015 10.6872 8.31849 10.8038 8.26582 10.8039C8.24908 10.8039 8.20067 10.7971 8.11248 10.7341C7.90397 10.5861 7.75142 10.3749 7.57357 10.114C6.96853 9.22796 6.46074 8.25191 6.02097 7.12938C5.85787 6.71615 5.55327 6.48481 5.16289 6.478C4.73395 6.47125 4.34504 6.46799 3.97413 6.46799C3.56886 6.46799 3.19314 6.47187 2.82625 6.47978C2.51217 6.48553 2.29492 6.58308 2.18061 6.76996C2.06611 6.95697 2.07356 7.20264 2.20276 7.50001C3.23702 9.88254 4.17478 11.6149 5.24345 13.1171C5.99225 14.1683 6.74333 14.8959 7.60686 15.4068C8.51664 15.9461 9.5362 16.2083 10.7237 16.2083C10.8583 16.2083 10.9975 16.2048 11.1379 16.198C11.8279 16.1632 12.0839 15.9044 12.1163 15.2082C12.1317 14.8525 12.1692 14.4793 12.338 14.1611C12.4445 13.9606 12.5439 13.9606 12.5765 13.9606C12.6394 13.9606 12.7174 13.9906 12.8011 14.0468C12.9513 14.1484 13.0801 14.2845 13.1857 14.4034C13.285 14.5163 13.3833 14.6304 13.4817 14.7446C13.6939 14.9909 13.9134 15.2456 14.1427 15.4871C14.6445 16.0162 15.1973 16.2488 15.8323 16.1983H18.2023C18.2073 16.1983 18.2124 16.1981 18.2175 16.1978C18.4536 16.1817 18.6582 16.0459 18.7786 15.8254C18.9279 15.5522 18.9249 15.2037 18.7706 14.893C18.5956 14.5415 18.3685 14.2413 18.1696 13.9941Z" fill="#7572D5"/>
	</g>

	<g id="link">
		<path d="M3.80637 5.88635H0.532959V16.3626H3.80637V5.88635Z" fill="#7572D5"/>
		<path d="M2.10079 0.940186C0.893758 0.940186 0.100006 1.72082 0.100006 2.75729C0.100006 3.77408 0.867519 4.57439 2.05487 4.57439H2.08111C3.31437 4.57439 4.08189 3.76752 4.07533 2.75729C4.04909 1.72082 3.30781 0.940186 2.10079 0.940186Z" fill="#7572D5"/>
		<path d="M12.7476 5.78796C10.8714 5.78796 9.6972 6.81131 9.48072 7.53291V5.88636H5.8006C5.84652 6.75883 5.8006 16.3626 5.8006 16.3626H9.48072V10.7014C9.48072 10.3799 9.4676 10.065 9.55944 9.84201C9.80872 9.21225 10.3532 8.55626 11.3306 8.55626C12.6098 8.55626 13.1871 9.52713 13.1871 10.9441V16.3626H16.9V10.5374C16.9 7.29675 15.0764 5.78796 12.7476 5.78796Z" fill="#7572D5"/>
	</g>
</svg>
