<svg width="50.000000" height="50.000000" viewBox="0 0 50 50" fill="none" xmlns="http://www.w3.org/2000/svg">

	<!--	header-->

	<g id="logo">

	</g>

	<!--	tabMenu-->
	<g id="rect-0">
		<rect y="0.42749" width="171.127" height="2.93865" fill="#7572D5"/>
	</g>

	<!--	hero-->

	<g id="rect-1">
		<rect x="2.5" y="2.5" width="365" height="475" stroke="#7572D5" stroke-width="5"/>
	</g>

	<g id="rect-2">
		<rect width="426" height="20" fill="#7572D5"/>
	</g>

	<!--my skills-->

	<g id="vector">
		<path d="M0 1H55" stroke="#7572D5"/>
	</g>

	<g id="rect-3">
		<rect x="57" width="80" height="80" transform="rotate(45 57 0)" fill="white" fill-opacity="0.1"/>
	</g>

	<g id="code">
		<path d="M18.31 42.06L27.26 6.68L31.43 7.87L22.48 43.31L18.31 42.06Z" fill="#7572D5" fill-opacity="1.000000" fill-rule="evenodd"/>
		<path d="M13.5 12.68L16.56 15.92L7.99 25L16.56 34.07L13.5 37.31L1.87 25L13.5 12.68Z" fill="#7572D5" fill-opacity="1.000000" fill-rule="evenodd"/>
		<path d="M36.49 12.68L33.43 15.92L42 25L33.43 34.07L36.49 37.31L48.12 25L36.49 12.68Z" fill="#7572D5" fill-opacity="1.000000" fill-rule="evenodd"/>
	</g>

	<g id="css">
		<path d="M38.05 10.84L12.94 10.83L13.35 15.75L32.63 15.75L32.15 20.85L19.5 20.85L19.96 25.67L31.73 25.67L31.03 32.28L25.49 33.78L19.86 32.27L19.5 28.31L14.53 28.31L15.08 35.54L25.49 38.73L35.73 35.86L38.04 10.84L38.05 10.84ZM5.49 2.56L45.49 2.56L41.86 42.99L25.45 47.56L9.13 42.99L5.49 2.56Z" fill="#7572D5" fill-opacity="1.000000" fill-rule="nonzero"/>
	</g>

	<g id="react">
		<path d="M47.81 25C47.81 22.08 44.68 19.37 39.47 17.5L38.54 17.18L38.54 16.77C39.68 11.04 38.85 6.77 36.25 5.2C33.64 3.64 29.79 5.1 25.62 8.75L25 9.37L24.79 9.16L24.58 9.16C20.31 5.2 16.14 3.85 13.54 5.31C10.93 6.77 10.2 10.83 11.25 16.14C11.35 16.48 11.42 16.83 11.45 17.18L10.31 17.6C5.2 19.37 2.18 22.08 2.18 25C2.18 27.91 5.52 30.83 10.72 32.7L11.45 32.91C11.32 33.28 11.25 33.67 11.25 34.06C10.2 39.27 11.14 43.22 13.54 44.68C15.93 46.14 20.31 44.79 24.47 41.14L25.1 40.62L25.93 41.45C28.85 43.95 31.77 45.31 34.06 45.31C34.87 45.33 35.66 45.11 36.35 44.68C38.95 43.22 39.89 38.95 38.75 33.54L38.75 33.33C38.7 33.16 38.67 32.98 38.64 32.81L38.95 32.81C44.47 30.83 47.81 28.02 47.81 25ZM44.79 25C44.79 26.25 42.5 28.43 38.02 29.89L37.81 29.89C37.26 28.22 36.6 26.58 35.83 25C36.56 23.33 37.18 21.66 37.7 20.1L38.54 20.31C42.7 21.77 44.79 23.75 44.79 25ZM27.91 39.16L27.08 38.54C28.27 37.22 29.38 35.82 30.41 34.37L35.72 33.54C35.83 33.75 35.83 33.95 35.93 34.06C36.3 35.94 36.37 37.88 36.14 39.79C35.99 40.7 35.56 41.54 34.89 42.18C33.85 42.81 31.04 41.97 27.91 39.16ZM26.56 34.58L25.1 36.45L23.43 34.58L26.56 34.58ZM12.29 20C12.81 21.71 13.47 23.38 14.27 25C13.47 26.64 12.81 28.35 12.29 30.1L11.66 29.89C9.84 29.32 8.14 28.4 6.66 27.18C6.28 26.94 5.95 26.62 5.7 26.24C5.45 25.87 5.28 25.44 5.2 25C5.2 23.75 7.29 21.77 11.25 20.41L12.29 20ZM23.43 15.41L25 13.64L26.56 15.41L23.43 15.41ZM34.89 7.81C36.04 8.43 36.66 11.56 35.72 16.14C35.73 16.2 35.72 16.25 35.7 16.31C35.69 16.36 35.66 16.41 35.62 16.45L30.41 15.62C29.38 14.17 28.27 12.77 27.08 11.45L27.7 10.93C31.04 8.02 33.75 7.18 34.89 7.81ZM17.5 18.85L16.66 20.2L15.93 21.56C15.62 20.83 15.41 20.1 15.1 19.27L17.5 18.85ZM15.1 30.72C15.41 30 15.62 29.27 15.93 28.43L16.66 29.79L17.5 31.14L15.1 30.72ZM32.5 25C31.96 26.14 31.37 27.25 30.72 28.33C30.1 29.47 29.37 30.52 28.75 31.56L21.25 31.56C20.52 30.41 19.79 29.37 19.27 28.33C18.61 27.25 18.02 26.14 17.5 25C18 23.84 18.59 22.73 19.27 21.66C19.86 20.58 20.53 19.54 21.25 18.54C23.74 18.33 26.25 18.33 28.75 18.54C29.47 19.58 30.1 20.62 30.72 21.66C31.4 22.73 31.99 23.84 32.5 25ZM33.33 20.2L32.5 18.85L34.89 19.37C34.66 20.12 34.38 20.85 34.06 21.56L33.33 20.2ZM32.5 31.14L33.33 29.79L34.06 28.33L35 30.72L32.5 31.14ZM22.81 11.35L22.91 11.35L19.58 15.52L14.37 16.35C14.27 16.04 14.27 15.83 14.16 15.52C13.33 11.25 13.95 8.33 15 7.81C15.27 7.63 15.61 7.55 15.93 7.6C17.39 7.6 19.89 8.64 22.7 11.14L22.81 11.35ZM14.16 34.58C14.18 34.26 14.25 33.94 14.37 33.64L19.68 34.37C20.68 35.84 21.8 37.24 23.02 38.54L22.81 38.75L22.6 38.95C21.18 40.27 19.52 41.29 17.7 41.97C17.31 42.18 16.87 42.31 16.42 42.34C15.98 42.38 15.52 42.32 15.1 42.18C13.95 41.56 13.33 38.75 14.16 34.58Z" fill="#7572D5" fill-opacity="1.000000" fill-rule="nonzero"/>
		<path d="M25 20.41C24.08 20.39 23.19 20.64 22.42 21.13C21.65 21.62 21.05 22.33 20.69 23.17C20.32 24 20.22 24.93 20.38 25.82C20.55 26.72 20.98 27.55 21.61 28.2C22.25 28.85 23.07 29.3 23.96 29.48C24.85 29.67 25.78 29.58 26.62 29.24C27.46 28.89 28.19 28.31 28.69 27.55C29.2 26.8 29.47 25.91 29.47 25C29.47 23.8 29.01 22.65 28.17 21.79C27.33 20.93 26.19 20.44 25 20.41Z" fill="#7572D5" fill-opacity="1.000000" fill-rule="nonzero"/>
	</g>

	<g id="ts">
		<path id="Vector" d="M5 25L5 45L45 45L45 5L5 5L5 25ZM37.23 23.4C38.25 23.66 39.02 24.11 39.73 24.84C40.1 25.24 40.65 25.95 40.69 26.13C40.7 26.18 38.96 27.34 37.91 28C37.87 28.02 37.72 27.86 37.55 27.61C37.03 26.86 36.49 26.53 35.67 26.48C34.46 26.39 33.68 27.03 33.68 28.09C33.67 28.35 33.73 28.61 33.85 28.84C34.12 29.39 34.62 29.72 36.17 30.39C39.03 31.63 40.26 32.44 41.02 33.59C41.87 34.88 42.06 36.94 41.48 38.47C40.85 40.13 39.28 41.26 37.06 41.64C36.37 41.76 34.75 41.74 34.01 41.61C32.41 41.32 30.88 40.53 29.94 39.48C29.57 39.08 28.86 38.02 28.9 37.94C28.92 37.91 29.08 37.81 29.27 37.71C29.45 37.61 30.12 37.22 30.75 36.85L31.9 36.18L32.15 36.54C32.48 37.05 33.22 37.76 33.66 37.99C34.94 38.66 36.69 38.57 37.55 37.8C37.73 37.65 37.86 37.46 37.95 37.26C38.05 37.05 38.09 36.82 38.08 36.59C38.08 36.13 38.02 35.93 37.78 35.58C37.47 35.14 36.83 34.76 35.03 33.98C32.96 33.09 32.08 32.54 31.26 31.66C30.75 31.08 30.38 30.4 30.16 29.66C30.01 29.1 29.97 27.68 30.09 27.11C30.52 25.12 32.02 23.73 34.2 23.31C34.9 23.18 36.54 23.23 37.23 23.4ZM27.84 25.07L27.85 26.71L22.65 26.71L22.65 41.5L18.96 41.5L18.96 26.71L13.76 26.71L13.76 25.1C13.76 24.21 13.78 23.47 13.8 23.45C13.82 23.43 16.99 23.41 20.83 23.42L27.82 23.44L27.84 25.07Z" fill="#7572D5" fill-opacity="1.000000" fill-rule="nonzero"/>
	</g>

	<g id="styled-comp">
		<path d="M37.25 6.25L36.98 7.64C36.57 10.3 36.72 11.06 37.86 12.04L38.97 12.95L37.82 18.03C37.14 21.05 36.3 23.59 35.77 24.43C35.31 25.15 34.77 26.21 34.66 26.77C34.47 27.45 33.82 28.14 32.83 28.74C31.95 29.24 30.23 30.56 29.02 31.62C28.04 32.49 27.37 33.03 27.01 33.26L25.82 34.19C25.44 34.8 25.22 35.29 25.14 35.66C25.05 36.05 25.1 36.3 25.22 36.49C25.34 36.66 25.55 36.79 25.83 36.87C26.16 36.95 26.5 36.97 26.85 36.95C27.62 36.9 28.38 36.76 29.12 36.55C29.38 36.48 29.57 36.42 29.75 36.36C30.01 36.03 30.63 35.42 31.72 34.35C34.62 31.51 35.73 29.96 34.58 30.38C34.16 30.53 34.35 30.15 35.08 29.39C36.61 27.91 37.48 25.68 39.31 18.67C40.76 13.14 40.76 13.06 41.83 13.06C42.33 13.06 43.75 13.15 43.75 13.15L43.75 6.25L40.49 6.25L37.25 6.25ZM24.42 18.08C23.36 18.07 21.1 19.66 14.33 25.16C14.03 25.85 14.01 26.32 14.14 26.63C14.23 26.84 14.39 26.99 14.61 27.1C14.82 27.2 15.1 27.27 15.41 27.29C16.03 27.35 16.76 27.25 17.35 27.14L17.74 27.05C17.88 26.87 18.06 26.72 18.26 26.62C18.68 26.39 20.43 24.81 22.19 23.1C25.28 19.99 26 18.59 24.74 18.14C24.64 18.1 24.53 18.08 24.42 18.08ZM32.33 20.23C31.4 20.26 29.74 21.33 26.88 23.59C25.44 24.75 24.54 25.37 24.05 25.5L22.16 26.98C21.45 28.27 21.35 29.07 21.53 29.51C21.58 29.62 21.65 29.72 21.73 29.8C21.82 29.88 21.92 29.95 22.03 29.99C22.31 30.1 22.6 30.15 22.9 30.15C23.6 30.14 24.31 30.04 24.99 29.85C25.34 29.75 25.69 29.64 26.03 29.52L26.14 29.47L26.33 29.37C26.69 28.91 27.52 28.04 28.56 27.04C31.84 23.9 33.51 21.66 33.17 20.83C33.02 20.42 32.75 20.22 32.33 20.23ZM23.59 24.1C23.33 24.13 22.73 24.59 21.65 25.52C20.1 26.89 18.4 27.68 17.81 27.33C17.67 27.36 17.54 27.39 17.4 27.41C16.8 27.53 16.06 27.63 15.39 27.58C15.07 27.56 14.77 27.48 14.48 27.35C14.21 27.23 13.99 27.01 13.87 26.74C13.74 26.42 13.74 26.02 13.89 25.51L11.55 27.42L6.25 31.77L6.25 38.84L23.62 25.25C23.62 25.1 23.64 24.95 23.68 24.81C23.81 24.33 23.8 24.08 23.59 24.1L23.59 24.1ZM31.07 26.39C30.81 26.39 30.37 26.76 29.66 27.5C28.71 28.51 27.21 29.49 26.41 29.69L26.29 29.76C26.16 29.81 26.02 29.86 25.89 29.91C25.67 29.98 25.39 30.06 25.07 30.15C24.42 30.33 23.61 30.49 22.89 30.47C22.55 30.47 22.22 30.4 21.9 30.27C21.6 30.15 21.37 29.92 21.24 29.63C21.03 29.13 21.11 28.44 21.57 27.44L6.25 39.43L6.25 43.75L12.98 43.75L27.26 32.61C27.63 32.2 28.19 31.64 28.94 30.94C30.96 29.08 31.42 28.44 31.42 27.49C31.42 26.76 31.33 26.38 31.07 26.38L31.07 26.39ZM34.47 33.37L33.25 34.58C32.56 35.22 31.34 36.02 30.5 36.36L30.34 36.43L30.33 36.45L30.29 36.48C30.26 36.51 30.24 36.51 30.22 36.52C29.89 36.65 29.55 36.76 29.2 36.85C28.44 37.08 27.65 37.21 26.86 37.27C26.48 37.29 26.11 37.26 25.74 37.17C25.43 37.1 25.15 36.92 24.96 36.65C24.78 36.39 24.73 36.03 24.83 35.6C24.91 35.29 25.02 34.99 25.17 34.7L13.65 43.75L28.98 43.75L30.81 41.66C33.32 38.75 34.47 36.66 34.47 34.88L34.47 33.37Z"
			  fill="#7572D5" fill-opacity="1.000000" fill-rule="nonzero"/>
	</g>

	<g id="figma">
		<path d="M17.7 4.16C14.25 4.16 11.45 6.96 11.45 10.41C11.45 13.86 14.25 16.66 17.7 16.66L32.29 16.66C35.74 16.66 38.54 13.86 38.54 10.41C38.54 6.96 35.74 4.16 32.29 4.16L17.7 4.16Z"
			  fill="#7572D5" fill-opacity="1.000000" fill-rule="nonzero"/>
		<path d="M32.29 18.75C28.83 18.75 26.04 21.54 26.04 25C26.04 28.45 28.83 31.25 32.29 31.25C35.74 31.25 38.54 28.45 38.54 25C38.54 21.54 35.74 18.75 32.29 18.75Z"
			  fill="#7572D5" fill-opacity="1.000000" fill-rule="nonzero"/>
		<path d="M11.45 25C11.45 21.54 14.25 18.75 17.7 18.75L23.95 18.75L23.95 31.25L17.7 31.25C14.25 31.25 11.45 28.45 11.45 25Z"
			  fill="#7572D5" fill-opacity="1.000000" fill-rule="nonzero"/>
		<path d="M17.7 33.33C14.25 33.33 11.45 36.13 11.45 39.58C11.45 43.03 14.25 45.83 17.7 45.83C21.16 45.83 23.95 43.03 23.95 39.58L23.95 33.33L17.7 33.33Z"
			  fill="#7572D5" fill-opacity="1.000000" fill-rule="nonzero"/>
	</g>

	<!--	my works-->
	<g id="rect-4">
		<rect width="44" height="10" fill="#7572D5"/>
	</g>

	<!--	testimony-->
	<g id="bullet">
		<rect width="7" height="7" rx="3.5" fill="white" fill-opacity="0.5"/>
	</g>

	<g id="bullet-line">
		<rect width="20" height="7" rx="3.5" fill="#7572D5"/>
	</g>

	<g id="quote">
		<path d="M13.54 20.83C13.07 20.83 12.63 20.9 12.18 20.96C12.33 20.48 12.47 19.99 12.71 19.55C12.95 18.91 13.32 18.35 13.69 17.79C14 17.18 14.54 16.77 14.94 16.25C15.36 15.75 15.93 15.41 16.38 14.99C16.83 14.56 17.41 14.34 17.87 14.03C18.35 13.75 18.77 13.45 19.22 13.3L20.35 12.84L21.33 12.43L20.32 8.39L19.08 8.69C18.68 8.79 18.2 8.91 17.65 9.05C17.08 9.15 16.48 9.44 15.81 9.7C15.15 9.99 14.38 10.19 13.67 10.67C12.95 11.12 12.12 11.5 11.39 12.11C10.69 12.74 9.83 13.28 9.21 14.08C8.52 14.82 7.84 15.61 7.31 16.5C6.7 17.35 6.29 18.28 5.85 19.21C5.45 20.13 5.13 21.07 4.87 21.99C4.38 23.83 4.16 25.57 4.07 27.07C4 28.56 4.05 29.81 4.13 30.71C4.16 31.13 4.22 31.54 4.26 31.83L4.32 32.18L4.37 32.17C4.74 33.9 5.59 35.49 6.83 36.75C8.07 38.02 9.64 38.91 11.36 39.32C13.08 39.73 14.88 39.65 16.56 39.08C18.23 38.51 19.71 37.47 20.83 36.1C21.94 34.72 22.64 33.06 22.85 31.3C23.06 29.54 22.76 27.76 22 26.16C21.23 24.57 20.04 23.22 18.54 22.27C17.04 21.33 15.31 20.83 13.54 20.83ZM36.45 20.83C35.99 20.83 35.54 20.9 35.1 20.96C35.24 20.48 35.39 19.99 35.63 19.55C35.87 18.91 36.24 18.35 36.61 17.79C36.91 17.18 37.46 16.77 37.86 16.25C38.28 15.75 38.85 15.41 39.3 14.99C39.74 14.56 40.32 14.34 40.79 14.03C41.27 13.75 41.69 13.45 42.14 13.3L43.26 12.84L44.25 12.43L43.24 8.39L42 8.69C41.6 8.79 41.11 8.91 40.56 9.05C40 9.15 39.4 9.44 38.72 9.7C38.06 9.99 37.3 10.19 36.58 10.67C35.87 11.12 35.04 11.5 34.31 12.11C33.6 12.74 32.75 13.28 32.12 14.08C31.43 14.82 30.76 15.61 30.23 16.5C29.62 17.35 29.2 18.28 28.77 19.21C28.37 20.13 28.05 21.07 27.79 21.99C27.3 23.83 27.08 25.57 26.99 27.07C26.92 28.56 26.96 29.81 27.05 30.71C27.08 31.13 27.14 31.54 27.18 31.83L27.23 32.18L27.29 32.17C27.66 33.9 28.51 35.49 29.75 36.75C30.98 38.02 32.55 38.91 34.28 39.32C36 39.73 37.8 39.65 39.48 39.08C41.15 38.51 42.63 37.47 43.74 36.1C44.86 34.72 45.56 33.06 45.76 31.3C45.97 29.54 45.68 27.76 44.91 26.16C44.15 24.57 42.95 23.22 41.45 22.27C39.96 21.33 38.22 20.83 36.45 20.83Z"
			  fill="#7572D5" fill-opacity="1.000000" fill-rule="nonzero"/>
	</g>

	<!--	availability-->
	<g id="rect-5">
		<rect width="77" height="10" fill="#7572D5"/>
	</g>

	<!--	footer-->
	<g id="arrow">
		<path d="M6.80722 4.2806V15H9.19278V4.2806L14.3134 9.08118L16 7.5L8 0L0 7.5L1.6866 9.08118L6.80722 4.2806Z" fill="white"/>
	</g>

	<g id="inst">
		<path id="Vector" d="M15.65 2.1L5.34 2.1C3.55 2.1 2.09 3.55 2.09 5.34L2.09 8.77L2.09 15.65C2.09 17.44 3.55 18.9 5.34 18.9L15.65 18.9C17.44 18.9 18.9 17.44 18.9 15.65L18.9 8.77L18.9 5.34C18.89 3.55 17.43 2.1 15.65 2.1ZM16.58 4.03L16.95 4.03L16.95 4.4L16.95 6.88L14.11 6.88L14.1 4.04L16.58 4.03ZM8.09 8.77C8.63 8.03 9.5 7.53 10.49 7.53C11.47 7.53 12.35 8.02 12.88 8.77C13.24 9.25 13.44 9.85 13.44 10.49C13.44 12.12 12.12 13.45 10.48 13.45C8.85 13.45 7.54 12.12 7.54 10.49C7.54 9.85 7.75 9.25 8.09 8.77ZM17.25 15.64C17.25 16.53 16.53 17.25 15.65 17.25L5.34 17.25C4.46 17.25 3.74 16.53 3.74 15.64L3.74 8.77L6.24 8.77C6.03 9.3 5.9 9.88 5.9 10.49C5.9 13.02 7.96 15.08 10.5 15.08C13.03 15.08 15.09 13.02 15.09 10.49C15.09 9.88 14.96 9.3 14.75 8.77L17.25 8.77L17.25 15.64Z" fill="currentColor" fill-opacity="1.000000" fill-rule="nonzero"/>
	</g>

	<g id="tel">
		<path d="M18.9057 4.76449L16.3705 16.7208C16.1791 17.5644 15.6804 17.7745 14.9717 17.3772L11.1085 14.5305L9.24472 16.3235C9.0383 16.5299 8.86608 16.7022 8.46824 16.7022L8.74607 12.7681L15.9054 6.29885C16.2169 6.02162 15.8376 5.86741 15.4218 6.14524L6.57084 11.7186L2.76043 10.5257C1.93174 10.2671 1.91674 9.69701 2.93325 9.29917L17.837 3.55716C18.5271 3.29854 19.1308 3.71018 18.9057 4.76449Z" fill="currentColor"/>
	</g>

	<g id="vk">
		<path d="M18.1696 13.9941C17.8038 13.5391 17.3881 13.1314 16.9861 12.737C16.8432 12.5968 16.6954 12.4518 16.5529 12.3076C16.1439 11.8932 16.129 11.7375 16.4529 11.2668C16.6769 10.9424 16.9145 10.6175 17.1442 10.3033C17.3526 10.0183 17.568 9.72351 17.7746 9.42777L17.817 9.36697C18.2117 8.80103 18.6199 8.21583 18.8372 7.50988C18.8936 7.32363 18.9528 7.04955 18.8174 6.82036C18.682 6.59137 18.4195 6.52151 18.2337 6.48888C18.1418 6.47273 18.0506 6.47053 17.9659 6.47053L15.3809 6.46861L15.3595 6.46842C14.9687 6.46842 14.7053 6.65927 14.5544 7.05194C14.4103 7.42713 14.252 7.82665 14.0714 8.20653C13.7119 8.96298 13.2554 9.83425 12.5948 10.5609L12.5669 10.5918C12.4889 10.6787 12.4005 10.777 12.3359 10.777C12.326 10.777 12.3152 10.7751 12.303 10.7711C12.1662 10.7159 12.0744 10.3726 12.0785 10.213C12.0786 10.2108 12.0786 10.2086 12.0786 10.2064L12.0768 7.1105C12.0768 7.09976 12.0761 7.08913 12.0747 7.07849C12.009 6.57522 11.8633 6.26195 11.3129 6.15026C11.2983 6.14724 11.2834 6.14575 11.2685 6.14575H8.5806C8.14268 6.14575 7.90138 6.33018 7.67456 6.60623C7.61334 6.68002 7.48589 6.83364 7.54906 7.01998C7.61315 7.20911 7.8212 7.24955 7.88894 7.26268C8.22522 7.32899 8.41477 7.54213 8.46846 7.91453C8.56219 8.56121 8.57371 9.25144 8.50471 10.0868C8.48547 10.3189 8.44742 10.4982 8.38471 10.6514C8.37015 10.6872 8.31849 10.8038 8.26582 10.8039C8.24908 10.8039 8.20067 10.7971 8.11248 10.7341C7.90397 10.5861 7.75142 10.3749 7.57357 10.114C6.96853 9.22796 6.46074 8.25191 6.02097 7.12938C5.85787 6.71615 5.55327 6.48481 5.16289 6.478C4.73395 6.47125 4.34504 6.46799 3.97413 6.46799C3.56886 6.46799 3.19314 6.47187 2.82625 6.47978C2.51217 6.48553 2.29492 6.58308 2.18061 6.76996C2.06611 6.95697 2.07356 7.20264 2.20276 7.50001C3.23702 9.88254 4.17478 11.6149 5.24345 13.1171C5.99225 14.1683 6.74333 14.8959 7.60686 15.4068C8.51664 15.9461 9.5362 16.2083 10.7237 16.2083C10.8583 16.2083 10.9975 16.2048 11.1379 16.198C11.8279 16.1632 12.0839 15.9044 12.1163 15.2082C12.1317 14.8525 12.1692 14.4793 12.338 14.1611C12.4445 13.9606 12.5439 13.9606 12.5765 13.9606C12.6394 13.9606 12.7174 13.9906 12.8011 14.0468C12.9513 14.1484 13.0801 14.2845 13.1857 14.4034C13.285 14.5163 13.3833 14.6304 13.4817 14.7446C13.6939 14.9909 13.9134 15.2456 14.1427 15.4871C14.6445 16.0162 15.1973 16.2488 15.8323 16.1983H18.2023C18.2073 16.1983 18.2124 16.1981 18.2175 16.1978C18.4536 16.1817 18.6582 16.0459 18.7786 15.8254C18.9279 15.5522 18.9249 15.2037 18.7706 14.893C18.5956 14.5415 18.3685 14.2413 18.1696 13.9941Z" fill="currentColor"/>
	</g>

	<g id="link">
		<path id="Vector" d="M2.53 6.88L5.8 6.88L5.8 17.36L2.53 17.36L2.53 6.88Z" fill="currentColor" fill-opacity="1.000000" fill-rule="evenodd"/>
		<path id="Vector" d="M4.1 1.94C2.89 1.94 2.09 2.72 2.09 3.75C2.09 4.77 2.86 5.57 4.05 5.57L4.08 5.57C5.31 5.57 6.08 4.76 6.07 3.75C6.04 2.72 5.3 1.94 4.1 1.94Z" fill="currentColor" fill-opacity="1.000000" fill-rule="nonzero"/>
		<path id="Vector" d="M14.74 6.78C12.87 6.78 11.69 7.81 11.48 8.53L11.48 6.88L7.8 6.88C7.84 7.75 7.8 17.36 7.8 17.36L11.48 17.36L11.48 11.7C11.48 11.38 11.46 11.06 11.55 10.84C11.8 10.21 12.35 9.55 13.33 9.55C14.6 9.55 15.18 10.52 15.18 11.94L15.18 17.36L18.9 17.36L18.9 11.53C18.9 8.29 17.07 6.78 14.74 6.78Z" fill="currentColor" fill-opacity="1.000000" fill-rule="nonzero"/>
	</g>
</svg>
